<svg width="67" height="66" viewBox="0 0 67 66" fill="none" xmlns="http://www.w3.org/2000/svg">
<g id="LOGO" clip-path="url(#clip0_131_673)">
<path id="Vector" d="M38.5677 12.1863C40.9927 18.5626 43.3917 24.858 45.7948 31.1518C46.2908 32.451 46.7979 33.746 47.308 35.0396C47.5356 35.6169 47.7073 36.2735 48.561 36.1354C49.4011 35.9996 49.2848 35.2518 49.3114 34.744C49.3908 33.2297 49.8902 31.8796 50.6826 30.6284C51.3143 29.6309 52.1852 28.8915 53.2655 28.3695C53.8961 30.0815 53.1541 32.3147 50.8105 35.9004C51.8586 35.914 52.6218 35.4467 53.1257 34.6751C53.7077 33.7839 54.4351 33.1117 55.3709 32.6525C55.8262 32.429 56.2689 32.2535 56.5647 31.7639C56.8049 31.3662 57.2763 31.2463 57.7211 31.538C58.1071 31.7911 58.1942 32.1865 58.0697 32.6057C57.9149 33.1271 57.4711 33.2982 57.0269 33.1462C55.9997 32.7947 55.3992 33.3997 54.6661 34.0387C55.1721 34.2842 55.4018 33.8697 55.7139 33.8001C56.0118 33.7335 56.2993 33.7241 56.5131 33.991C56.7178 34.2466 56.7518 34.5289 56.5535 34.7996C56.3631 35.0597 56.0899 35.1769 55.7826 35.0535C54.8201 34.6668 54.1487 35.2278 53.2061 35.8144C54.4088 35.9384 55.3342 36.0628 56.2948 35.6823C59.1886 34.536 62.128 34.079 65.1231 35.3314C65.7592 35.5974 66.3633 35.9197 66.9912 36.5218C65.6025 37.4765 64.1301 37.8914 62.5863 38.0374C60.3609 38.2479 58.2102 37.9179 56.2396 36.8021C55.4066 36.3304 54.6076 36.7773 53.4981 36.5899C54.7014 37.7627 55.961 38.4009 56.7114 39.6002C57.4457 40.7737 57.8535 42.0258 58.0087 43.329C57.7114 43.6854 57.4209 43.5723 57.15 43.4804C54.4675 42.571 52.5506 40.8499 51.589 38.1355C51.1537 36.9069 49.7704 36.2934 48.6122 36.8255C48.0768 37.0715 48.2397 37.4433 48.3898 37.8365C49.4596 40.6403 50.5155 43.4496 51.5937 46.2502C53.0673 50.078 54.5549 53.9014 56.2885 57.6199C57.0469 59.2466 57.9546 60.7858 59.1236 62.1676C60.4547 63.741 62.0651 64.7684 64.1285 65.0197C64.4179 65.055 64.7208 65.0665 64.8721 65.4137C64.7962 65.9846 64.3273 65.9092 63.9539 65.9096C57.6776 65.9148 51.4013 65.9108 45.125 65.8987C44.7796 65.8981 44.3794 65.9322 44.195 65.4845C44.3088 64.9956 44.737 65.0225 45.0649 65.0243C47.8265 65.0391 48.4293 63.2503 47.9137 60.8234C47.3706 58.2669 46.3702 55.8652 45.4499 53.4369C43.6857 48.7823 41.8932 44.1385 40.1534 39.4748C39.7877 38.4945 39.3156 38.0794 38.2079 38.3266C31.0351 39.9276 24.4308 42.7712 18.3758 46.993C15.8808 48.7326 14.443 51.0303 13.6083 53.8408C13.1021 55.545 12.3308 57.1489 12.4485 59.0429C12.6614 62.4683 14.8136 64.7953 18.2378 65.0237C18.6151 65.0489 19.0646 64.9195 19.3119 65.4433C19.0832 65.9996 18.5511 65.9134 18.1169 65.9144C12.3881 65.9283 6.65928 65.9254 0.930455 65.918C0.547699 65.9175 0.0022444 65.9801 6.03189e-06 65.4332C-0.00205192 64.9308 0.522949 65.0444 0.864624 65.0224C6.23104 64.6769 9.62886 61.6043 11.4737 56.8194C13.1054 52.5876 14.5792 48.2932 16.4163 44.1424C16.692 43.5194 16.5794 43.1955 16.0649 42.7684C13.6052 40.7266 11.9306 38.2404 11.9371 34.8852C11.9378 34.5336 11.8476 34.1486 12.3144 33.6734C15.1999 35.3457 16.7268 37.9764 17.5037 41.5113C18.6984 38.8236 19.983 36.4882 20.3599 33.9508C20.669 31.869 19.9433 29.7205 18.6762 27.9423C17.4572 26.2314 16.7971 24.4074 16.9622 22.2973C16.9993 21.8226 16.99 21.3437 17.3718 20.9793C17.8306 20.9337 18.0071 21.303 18.2244 21.5739C19.7395 23.4624 20.4019 25.5843 20.0731 28.0278C19.8849 29.4259 20.7594 30.6005 21.1155 31.925C21.6835 30.0849 22.6719 28.4068 22.6181 26.3935C22.5216 22.7815 23.4459 19.5037 26.0271 16.8402C26.2734 16.586 26.4532 16.2246 27.0554 16.2967C27.3503 17.6548 27.3041 19.0782 27.09 20.4538C26.7554 22.6034 26.1306 24.7152 24.68 26.389C23.191 28.107 22.8785 30.2719 22.1502 32.282C21.9578 32.8129 21.7099 33.3572 21.7592 33.9799C23.3685 33.3543 24.7305 31.4283 24.6542 29.941C24.6236 29.3465 24.8738 28.9358 25.4649 28.8157C25.9938 28.7082 26.417 28.9362 26.6236 29.4273C26.8365 29.9333 26.6748 30.4763 26.1964 30.6461C25.1971 31.0009 24.9434 31.8824 24.3112 32.9199C26.1795 32.3354 27.3167 31.2977 28.2197 29.9505C28.431 29.6352 28.1817 29.3127 28.1544 28.9928C28.0806 28.1297 28.4341 27.5329 29.3052 27.4198C30.1087 27.3155 30.6533 27.7711 30.819 28.5419C30.9937 29.355 30.5796 29.9453 29.7923 30.0794C29.1109 30.1954 28.6898 30.563 28.2772 31.0481C27.0426 32.4998 25.6277 33.5995 23.6507 33.9368C22.1452 34.1936 20.5019 36.3269 20.5077 37.8028C23.2867 36.1319 26.1484 35.26 29.2837 36.4756C29.3257 37.1392 28.9122 37.3713 28.5784 37.6291C26.2026 39.464 23.5712 40.4813 20.5298 40.0023C19.7054 39.8725 19.2882 40.0848 18.9868 40.8972C18.4271 42.4057 17.7301 43.8623 17.1117 45.3496C16.9352 45.7741 16.8327 46.2297 16.7919 46.7627C23.4302 41.6933 31.0329 38.9803 39.084 37.2235C38.6464 35.4081 37.9856 33.865 37.3909 32.3035C34.7065 25.2553 32.0055 18.2134 29.2935 11.1758C29.0153 10.4541 28.9598 9.79056 29.2537 9.05623C30.3687 6.2704 31.4515 3.47152 32.5406 0.675303C32.6978 0.2718 32.891 -0.0110423 33.3997 0.000331004C33.9061 0.0116641 34.0688 0.28847 34.226 0.70716C35.6537 4.51066 37.1014 8.30661 38.5677 12.1863Z" fill="black"/>
</g>
<defs>
<clipPath id="clip0_131_673">
<rect width="67" height="66" fill="white"/>
</clipPath>
</defs>
</svg>
