<svg width="96" height="66" viewBox="0 0 96 66" fill="none" xmlns="http://www.w3.org/2000/svg">
<rect x="0.5" y="0.5" width="95" height="65" rx="9.5" fill="white" stroke="#D1D1D1"/>
<path d="M70.0979 19.3837C68.4467 20.1152 66.6952 20.5954 64.9018 20.8082C66.7699 19.6886 68.2042 17.9157 68.8796 15.8032C67.1038 16.857 65.1609 17.5995 63.1349 17.9985C61.4846 16.2404 59.1336 15.1416 56.5314 15.1416C51.5352 15.1416 47.4844 19.1922 47.4844 24.1881C47.4844 24.8973 47.5645 25.5876 47.7186 26.2499C40.2 25.8725 33.5339 22.271 29.0718 16.7976C28.2933 18.1337 27.8472 19.6879 27.8472 21.3457C27.8472 24.4844 29.4444 27.2533 31.8717 28.8757C30.4351 28.8307 29.0301 28.4427 27.7739 27.744C27.7734 27.7819 27.7734 27.8198 27.7734 27.8579C27.7734 32.2411 30.8918 35.8976 35.0303 36.7287C33.6981 37.091 32.3007 37.144 30.9449 36.8837C32.096 40.4779 35.4371 43.0933 39.3957 43.1665C36.2996 45.5928 32.3987 47.0392 28.1603 47.0392C27.43 47.0392 26.71 46.9963 26.0022 46.9127C30.0058 49.4796 34.761 50.9773 39.8699 50.9773C56.5104 50.9773 65.6098 37.192 65.6098 25.2373C65.6098 24.8449 65.6012 24.4548 65.5836 24.0668C67.3547 22.7865 68.8834 21.2007 70.0979 19.3837Z" fill="#55ACEE"/>
</svg>
