<svg width="96" height="66" viewBox="0 0 96 66" fill="none" xmlns="http://www.w3.org/2000/svg">
<rect x="0.5" y="0.5" width="95" height="65" rx="9.5" fill="white" stroke="#D1D1D1"/>
<path d="M66 33C66 23.0589 57.9411 15 48 15C38.0589 15 30 23.0588 30 33C30 41.9842 36.5824 49.431 45.1875 50.7813V38.2031H40.6172V33H45.1875V29.0344C45.1875 24.5231 47.8748 22.0312 51.9863 22.0312C53.9557 22.0312 56.0156 22.3828 56.0156 22.3828V26.8125H53.7459C51.5097 26.8125 50.8125 28.2 50.8125 29.6236V33H55.8047L55.0066 38.2031H50.8125V50.7813C59.4176 49.431 66 41.9844 66 33Z" fill="#1877F2"/>
<path d="M55.0066 38.2031L55.8047 33H50.8125V29.6236C50.8125 28.1999 51.5099 26.8125 53.7459 26.8125H56.0156V22.3828C56.0156 22.3828 53.9558 22.0312 51.9863 22.0312C47.8748 22.0312 45.1875 24.5231 45.1875 29.0344V33H40.6172V38.2031H45.1875V50.7813C46.1179 50.9271 47.0582 51.0002 48 51C48.9418 51.0003 49.8821 50.9272 50.8125 50.7813V38.2031H55.0066Z" fill="white"/>
</svg>
