<svg width="96" height="66" viewBox="0 0 96 66" fill="none" xmlns="http://www.w3.org/2000/svg">
<rect x="0.5" y="0.5" width="95" height="65" rx="9.5" fill="white" stroke="#D1D1D1"/>
<path d="M48 18.2434C52.8061 18.2434 53.3754 18.2617 55.2734 18.3481C57.0284 18.4283 57.9816 18.7215 58.6159 18.968C59.456 19.2945 60.0556 19.6846 60.6855 20.3145C61.3155 20.9444 61.7055 21.544 62.032 22.3841C62.2785 23.0184 62.5717 23.9716 62.6519 25.7265C62.7383 27.6246 62.7566 28.1939 62.7566 33C62.7566 37.8063 62.7383 38.3755 62.6519 40.2735C62.5717 42.0285 62.2785 42.9816 62.032 43.6159C61.7055 44.456 61.3154 45.0558 60.6855 45.6856C60.0556 46.3155 59.456 46.7056 58.6159 47.032C57.9816 47.2785 57.0284 47.5718 55.2734 47.6519C53.3757 47.7385 52.8064 47.7568 48 47.7568C43.1934 47.7568 42.6242 47.7385 40.7265 47.6519C38.9715 47.5717 38.0184 47.2785 37.3841 47.032C36.544 46.7056 35.9442 46.3155 35.3144 45.6856C34.6845 45.0556 34.2944 44.456 33.968 43.6159C33.7215 42.9817 33.4282 42.0285 33.3481 40.2735C33.2615 38.3755 33.2432 37.8063 33.2432 33C33.2432 28.1939 33.2615 27.6246 33.3481 25.7266C33.4283 23.9716 33.7215 23.0184 33.968 22.3841C34.2944 21.544 34.6845 20.9444 35.3144 20.3145C35.9444 19.6845 36.544 19.2945 37.3841 18.968C38.0183 18.7215 38.9715 18.4283 40.7265 18.3481C42.6245 18.2617 43.1937 18.2434 48 18.2434ZM48 15C43.1115 15 42.4985 15.0207 40.5787 15.1083C38.6626 15.1957 37.3541 15.5001 36.2093 15.945C35.0255 16.405 34.0217 17.0205 33.021 18.0212C32.0204 19.0219 31.405 20.0257 30.945 21.2093C30.4999 22.3543 30.1957 23.6628 30.1083 25.5787C30.0207 27.4985 30 28.1115 30 33C30 37.8885 30.0207 38.5015 30.1083 40.4213C30.1957 42.3374 30.4999 43.6459 30.945 44.7907C31.4048 45.9743 32.0204 46.9783 33.021 47.979C34.0217 48.9796 35.0255 49.595 36.2093 50.055C37.3543 50.5001 38.6626 50.8042 40.5785 50.8917C42.4985 50.9793 43.1115 51 48 51C52.8885 51 53.5015 50.9793 55.4213 50.8917C57.3372 50.8042 58.6457 50.5001 59.7906 50.055C60.9743 49.5952 61.9781 48.9796 62.9788 47.979C63.9795 46.9783 64.595 45.9745 65.055 44.7907C65.4999 43.6457 65.8042 42.3374 65.8917 40.4215C65.9793 38.5015 66 37.8885 66 33C66 28.1115 65.9793 27.4985 65.8917 25.5787C65.8042 23.6628 65.4999 22.3543 65.055 21.2094C64.595 20.0257 63.9795 19.0219 62.9788 18.0212C61.9781 17.0205 60.9743 16.4048 59.7907 15.945C58.6457 15.5001 57.3372 15.1957 55.4213 15.1083C53.5015 15.0207 52.8885 15 48 15ZM48 23.7567C42.895 23.7567 38.7567 27.8953 38.7567 33C38.7567 38.105 42.895 42.2433 48 42.2433C53.1048 42.2433 57.2433 38.105 57.2433 33C57.2433 27.8952 53.1048 23.7567 48 23.7567ZM48 39C44.6863 39 42 36.3137 42 33C42 29.6863 44.6863 27 48 27C51.3137 27 54 29.6863 54 33C54 36.3137 51.3137 39 48 39ZM59.7683 23.3915C59.7683 24.5846 58.8014 25.5515 57.6083 25.5515C56.4154 25.5515 55.4483 24.5846 55.4483 23.3915C55.4483 22.1986 56.4154 21.2315 57.6083 21.2315C58.8014 21.2315 59.7683 22.1986 59.7683 23.3915Z" fill="#0A0A08"/>
</svg>
