<svg width="96" height="66" viewBox="0 0 96 66" fill="none" xmlns="http://www.w3.org/2000/svg">
<rect x="0.5" y="0.5" width="95" height="65" rx="9.5" fill="white" stroke="#D1D1D1"/>
<path d="M65.1611 33.3368C65.1611 31.8619 65.0414 30.7856 64.7824 29.6694H47.9404V36.3264H57.8263C57.627 37.9808 56.5508 40.4722 54.1589 42.1463L54.1254 42.3692L59.4505 46.4945L59.8195 46.5313C63.2077 43.4021 65.1611 38.7979 65.1611 33.3368Z" fill="#4285F4"/>
<path d="M47.9403 50.8762C52.7836 50.8762 56.8495 49.2816 59.8194 46.5312L54.1589 42.1462C52.6441 43.2026 50.6111 43.94 47.9403 43.94C43.1967 43.94 39.1706 40.8109 37.7354 36.4858L37.5251 36.5037L31.9879 40.7889L31.9155 40.9902C34.8653 46.85 40.9245 50.8762 47.9403 50.8762Z" fill="#34A853"/>
<path d="M37.7355 36.4859C37.3568 35.3698 37.1376 34.1738 37.1376 32.9382C37.1376 31.7023 37.3568 30.5065 37.7155 29.3904L37.7055 29.1527L32.099 24.7986L31.9156 24.8858C30.6998 27.3175 30.0022 30.0481 30.0022 32.9382C30.0022 35.8282 30.6998 38.5587 31.9156 40.9903L37.7355 36.4859Z" fill="#FBBC05"/>
<path d="M47.9403 21.936C51.3087 21.936 53.5808 23.391 54.8764 24.6069L59.9389 19.6639C56.8297 16.7739 52.7836 15 47.9403 15C40.9245 15 34.8653 19.0261 31.9155 24.8858L37.7155 29.3904C39.1706 25.0653 43.1967 21.936 47.9403 21.936Z" fill="#EB4335"/>
</svg>
